<svg version="1.1" id="Layer_1" xmlns="http://www.w3.org/2000/svg" xmlns:xlink="http://www.w3.org/1999/xlink" x="0px" y="0px"
	 width="100%" viewBox="0 0 1024 1024" enable-background="new 0 0 1024 1024" xml:space="preserve">
<path fill="#000000" opacity="1.000000" stroke="none" 
	d="
M321.895233,744.273254 
	C322.549530,748.664856 322.878693,752.661377 323.705536,756.552185 
	C327.768311,775.670898 338.284363,784.685730 358.953949,787.718628 
	C369.693329,789.294495 380.491455,789.731812 391.281464,790.350891 
	C395.514191,790.593750 396.471466,792.403931 396.387512,796.273987 
	C396.156219,806.936768 396.761505,805.543579 387.150757,805.260681 
	C345.504913,804.034973 303.842743,803.802185 262.190948,803.736511 
	C221.040665,803.671631 179.888672,804.764771 138.737076,805.324585 
	C136.943909,805.348938 135.083405,805.782166 133.005875,804.681396 
	C132.254074,801.109009 132.814606,797.296875 132.704376,793.523254 
	C132.628372,790.921753 134.440720,790.653381 136.363708,790.515564 
	C144.663086,789.920837 152.974045,789.455139 161.259140,788.703735 
	C168.718704,788.027283 176.090317,786.829651 183.239319,784.390747 
	C197.819946,779.416565 203.261642,767.794800 205.583481,753.926331 
	C206.930450,745.880798 207.678604,737.767883 207.678101,729.590149 
	C207.670105,596.596313 207.680206,463.602448 207.682175,330.608612 
	C207.682281,323.332306 207.663788,323.441772 200.145401,323.297699 
	C183.881348,322.986084 167.954742,324.516266 152.484421,330.104004 
	C130.516205,338.038696 115.113609,353.334595 103.415359,372.886627 
	C88.893410,397.158112 80.574272,423.850861 73.444527,450.969055 
	C71.245598,459.332764 69.289719,467.767517 67.507584,476.229767 
	C66.864822,479.281891 65.500961,480.518829 62.459156,480.360443 
	C59.633343,480.213318 56.788853,480.205658 53.962620,480.343018 
	C50.666790,480.503204 49.492977,479.053101 49.761055,475.846893 
	C51.915241,450.082611 51.750313,424.295441 51.032463,398.466034 
	C50.259686,370.660339 49.294724,342.879791 46.917221,315.160278 
	C46.846062,314.330627 46.825768,313.496277 46.791908,312.663727 
	C46.521301,306.009003 46.648308,305.790375 53.182152,305.958984 
	C163.315216,308.801453 273.468750,307.794220 383.615936,307.595459 
	C414.098297,307.540466 444.578796,306.530548 475.060455,305.975891 
	C482.499786,305.840515 482.466339,306.114075 481.775299,313.549866 
	C480.759186,324.483887 479.892853,335.446716 479.455322,346.416901 
	C478.167511,378.706055 476.686646,410.999969 477.413086,443.327637 
	C477.641052,453.472015 478.507233,463.604095 479.171814,473.735840 
	C479.577759,479.924774 479.300446,480.446869 473.160187,480.304962 
	C460.242340,480.006500 462.935272,482.853088 459.827118,468.607056 
	C453.208588,438.271545 445.382263,408.354248 430.641235,380.752350 
	C419.314758,359.544006 404.394745,341.896240 381.680725,331.997131 
	C363.482910,324.066254 344.353760,322.806610 324.904846,323.296021 
	C322.410004,323.358826 321.185150,324.379089 321.238434,326.889801 
	C321.256073,327.722351 321.208038,328.556000 321.208221,329.389160 
	C321.237762,465.049286 321.266388,600.709412 321.320953,736.369568 
	C321.321960,738.856262 321.633087,741.342834 321.895233,744.273254 
z"/>
<path fill="#000000" opacity="1.000000" stroke="none" 
	d="
M660.545837,488.482452 
	C656.808533,517.720642 655.274109,546.657776 656.435303,575.642090 
	C658.228210,620.390808 664.134216,664.459961 681.177002,706.357361 
	C692.075806,733.150330 707.013306,757.078430 730.289612,775.050598 
	C753.168457,792.715698 779.201355,799.125977 807.695129,797.041992 
	C832.947021,795.195251 856.009216,787.208923 875.884460,771.467102 
	C893.311707,757.664185 909.731506,742.748169 918.603821,721.492737 
	C925.188416,705.718079 928.694458,689.131531 931.663147,672.407898 
	C933.987671,659.312866 935.838318,646.145142 936.864319,632.877991 
	C937.186340,628.714172 938.813049,626.796875 943.408936,626.896851 
	C956.568604,627.183350 954.927612,626.133057 954.981201,638.482239 
	C955.134521,673.812500 955.062744,709.145081 955.455383,744.472534 
	C955.660645,762.952942 956.549377,781.429199 957.370850,799.896606 
	C957.564636,804.252319 956.369568,805.668335 951.853210,805.539490 
	C940.863098,805.226135 940.748169,805.471863 939.087036,794.600403 
	C938.030212,787.684021 937.090698,780.759155 934.656128,774.159180 
	C931.159668,764.680908 925.583435,762.170227 916.264404,766.229431 
	C905.349243,770.983826 896.325439,778.888306 886.084351,784.801208 
	C864.085999,797.502625 841.838501,809.358704 816.109131,812.871826 
	C795.206238,815.725952 774.310425,816.017822 753.316406,814.424500 
	C731.495361,812.768494 710.032349,809.243774 689.202698,802.432251 
	C608.998230,776.204102 559.828491,721.092896 538.815552,640.093689 
	C530.771301,609.084961 528.588562,577.368042 529.886963,545.478455 
	C531.605103,503.284027 539.958069,462.522430 560.002991,424.946564 
	C596.392395,356.731567 652.494690,314.768158 728.733276,300.649963 
	C764.271729,294.068726 799.953430,293.679993 835.202515,302.713226 
	C861.425293,309.433319 884.203430,323.270599 905.874084,339.069458 
	C908.963745,341.321899 912.039917,343.679047 915.405273,345.450012 
	C923.832642,349.884674 929.729187,347.760864 933.589905,339.093658 
	C937.292480,330.781555 938.556763,321.852203 939.602173,312.935425 
	C940.404968,306.088562 940.318420,305.867523 946.947571,305.883881 
	C958.598755,305.912659 957.700500,304.786346 957.161316,316.345978 
	C954.776794,367.467224 955.248352,418.622559 954.991394,469.770111 
	C954.953308,477.361328 954.936279,477.361176 947.210632,477.360260 
	C937.612366,477.359070 937.765625,477.338806 936.582764,468.417389 
	C933.650513,446.301361 930.184631,424.285614 922.685120,403.137970 
	C915.465027,382.778259 903.941345,365.630310 887.312561,351.429688 
	C872.950684,339.164856 858.199646,328.055511 839.985229,322.442352 
	C809.129272,312.933502 778.331116,311.593597 748.334717,325.392822 
	C725.293701,335.992401 708.840271,353.977753 696.075684,375.451965 
	C678.551819,404.933014 669.213318,437.289764 663.349304,470.802002 
	C662.346558,476.532532 661.534058,482.296326 660.545837,488.482452 
z"/>
</svg>